<svg width="336" height="344" viewBox="0 0 336 344" fill="none" xmlns="http://www.w3.org/2000/svg">
<path d="M335.025 131.614L333.99 131.604L333.969 131.526L333.64 131.604H333.456L313.236 131.422L293.011 131.302L272.785 131.209L253.05 131.167L253.061 130.752L243.452 129.609L282.944 75.4233C286.177 73.4706 289.39 71.4761 292.606 69.5026L301.892 63.7118C299.435 68.9728 297.053 74.265 294.628 79.542C292.035 85.1769 289.513 90.8381 286.97 96.4991L283.159 104.991L279.414 113.509C276.914 119.18 274.445 124.867 272.02 130.575C274.709 124.981 277.372 119.372 279.985 113.747L283.919 105.313L287.789 96.8472C290.37 91.2068 292.963 85.5667 295.484 79.9055C298.007 74.2393 300.588 68.6041 303.072 62.917L303.552 61.8158L302.533 62.4808L292.353 69.1338C289.244 71.2007 286.113 73.2525 283.009 75.3405L288.339 68.0274L288.074 67.851L288.613 67.4458L289.303 66.9317H288.43L232.027 67.025L212.659 11.0582L212.432 10.3984L211.899 10.8659L202.392 19.3471C202.538 18.1631 202.64 16.9686 202.775 15.7843C202.894 14.4858 203.002 13.1978 203.093 11.8994L203.184 10.6165L202.398 11.6812C201.212 13.2809 200.043 14.891 198.906 16.5115C197.752 18.1266 196.637 19.7679 195.51 21.4038C194.4 23.0504 193.301 24.7019 192.223 26.3639C191.221 27.9169 190.245 29.4905 189.291 31.0745L186.085 33.9518L172.806 45.8504C172.369 44.4741 171.917 43.1084 171.464 41.7321C170.963 40.2155 170.467 38.6987 169.944 37.1981C168.904 34.1855 167.902 31.1577 166.824 28.1556L163.612 19.1446C162.54 16.1428 161.413 13.1616 160.314 10.1647L160.228 9.93097L159.98 9.88953L154.44 8.87668L148.889 7.91595C147.035 7.58866 145.181 7.2718 143.327 6.97579C141.484 6.67457 139.641 6.37334 137.787 6.09818L135.432 0.873385L135.044 0.000723129L134.591 0.847327C131.601 6.3629 128.669 11.8993 125.721 17.4308L116.894 34.0349L115.104 37.4419L104.051 28.7009L92.4269 19.5965L91.8503 19.1446L91.8931 19.8667C92.2384 25.2473 92.5618 30.6331 92.9388 36.0134L94.0113 51.704L85.0654 52.1764L84.4295 52.2074L84.6395 52.7893L88.7838 64.548L76.4642 65.1919L75.9307 65.2176L76.0817 65.706C77.9032 71.7982 79.7945 77.8696 81.6487 83.9514L84.4563 93.066L87.2694 102.078L81.9073 102.862C80.8886 102.124 79.8917 101.397 78.9434 100.711C79.8539 101.402 80.8132 102.129 81.8049 102.877L81.4762 102.924L81.8156 102.882C92.0496 110.636 106.04 121.284 115.59 128.394C106.056 130.793 92.9871 134.143 83.4487 136.636C82.7427 130.767 81.9448 124.904 81.1797 118.993C80.8403 116.485 80.3283 112.584 79.8431 108.814L80.2905 108.258L79.714 107.827C79.3742 105.214 79.0566 102.742 78.8244 100.914C79.0566 103.038 79.2936 105.318 79.5415 107.702L53.9001 88.5271L84.5747 96.1252L84.8176 95.2166L50.4237 86.6937L68.9948 108.59L0.585578 96.3331L35.4251 113.805L2.56362 135.613L39.0582 166.131L24.383 167.341L24.1998 167.357L0.256874 191.144L34.2033 204.58L25.0462 218.676C22.0007 223.339 18.9958 228.019 15.9939 232.698L15.7553 232.823L15.8309 232.953C15.8048 233 15.7728 233.041 15.7437 233.088L15.4383 233.555L16.0142 233.529L16.1538 233.524L16.2236 233.649L16.4884 233.509L32.1177 232.797L34.8287 232.667L35.3669 247.344C35.5443 252.299 35.7479 257.259 35.9603 262.214L35.9864 262.796L36.4548 262.422L50.6931 251.099L64.1015 240.354L63.3094 257.348L62.5333 275.323V275.505L62.6625 275.635L74.5295 287.533L86.4448 299.39L87.7759 300.715L87.1022 299.411L115.492 268.322L122.606 260.526L126.163 256.631L127.947 254.683L128.836 253.712C129.025 253.53 129.246 253.349 129.467 253.167C129.935 253.213 130.577 253.213 130.889 253.567C131.24 253.837 131.401 254.678 131.541 255.062L133.67 261.752C139.14 278.995 153.68 324.169 159.43 342.01L159.969 343.682L160.346 341.962C163.973 325.479 168.452 305.275 172.817 285.425L173.366 285.695L185.368 262.931L197.046 271.417L209.247 280.148L210.061 280.729L209.932 279.763C209.328 275.344 208.633 270.95 207.975 266.535C207.652 264.339 207.307 262.131 206.946 259.929L205.96 253.873L242.671 269.869L242.687 269.838L242.698 269.849H242.876L268.792 269.999L294.709 270.025H295.587L295.048 269.366L281.478 252.943L274.655 244.758L267.908 236.718L274.499 216.91L268.189 210.433L285.531 204.684L302.113 199.158L303.035 199.038L303.008 198.856L303.067 198.836L303.288 198.763L303.256 198.54L299.44 168.795L299.429 168.686L299.365 168.598L290.715 157.385L312.008 145.045L333.246 132.652L334.2 132.439L334.125 132.138L335.025 131.614ZM253.056 131.172L272.791 131.552L293.011 131.889L313.231 132.201L330.196 132.408L252.581 150.654L253.056 131.172ZM252.075 131.577L251.202 167.18L212.718 156.123L213.219 126.96L252.075 131.577ZM212.853 214.858L214.335 206.642L252.986 243.891L212.853 214.858ZM260.337 250.383L201.234 236.547L212.518 215.788L260.337 250.383ZM212.039 213.882L188.451 199.823L217.029 185.587L217.094 185.81L212.039 213.882ZM212.535 167.435L212.524 167.398L212.702 157.099L250.377 167.923L217.638 184.231L212.535 167.435ZM117.039 128.409L121.55 122.016L129.865 140.791L117.287 128.887C117.384 128.861 117.486 128.835 117.578 128.809C117.4 128.679 117.217 128.539 117.039 128.409ZM122.59 121.969L159.296 147.148L142.056 165.908L122.59 121.969ZM122.574 120.806L160.594 110.527L159.56 146.172L122.574 120.806ZM161.575 110.325L212.616 105.069L211.559 166.765L160.519 146.753L161.575 110.325ZM243.457 129.604L213.235 126.01L213.268 124.026L250.744 95.9488L286.393 69.108L243.457 129.604ZM232.086 67.747L287.535 67.5029L287.492 67.5654L250.496 95.6424L213.263 124.02L213.607 104.02L201.654 105.251L232.086 67.747ZM212.007 12.0085L231.3 67.1967L201.643 105.256L181.316 107.349L209.231 19.1655L208.849 19.0511L211.856 12.1383L212.007 12.0085ZM192.757 26.7117C193.953 25.1225 195.122 23.5176 196.281 21.9078C197.434 20.2925 198.582 18.6667 199.703 17.0308C200.592 15.748 201.46 14.4548 202.322 13.1564C202.312 14.0288 202.296 14.9014 202.296 15.7686C202.312 16.9738 202.306 18.1787 202.349 19.3888L198.976 22.401L189.512 30.8874C190.612 29.5062 191.695 28.1142 192.757 26.7117ZM186.694 34.6064L199.628 23.0814L211.845 12.1539L208.779 19.0357L208.299 18.8953L206.968 23.1022L191.733 57.2868L171.895 102.103L161.532 57.022L186.694 34.6064ZM170.941 102.301L144.896 79.9472L160.713 57.8272L170.941 102.301ZM85.7714 53.0751L94.5503 52.5712L95.019 52.5454L94.9867 52.0933L93.801 35.9564C93.4345 30.8147 93.0145 25.6731 92.6157 20.5366L103.809 29.0074L115.094 37.4628L108.141 50.6911C105.296 56.1548 102.44 61.6235 99.6321 67.1032L95.9512 63.4103L85.9005 53.4386L85.7714 53.0751ZM81.9128 102.888L87.3934 102.249L87.4958 102.238L87.469 102.14L84.8603 92.9678L82.2197 83.8057C80.4953 77.8644 78.7924 71.9175 77.0407 65.9866L89.4249 65.3891L90.0233 65.3581L89.8348 64.8127L85.9168 53.5113L95.6225 63.7118L106.218 74.7224C113.272 82.0714 120.418 89.332 127.516 96.6448L128.486 97.642L128.34 96.281C127.747 90.7289 127.084 85.1769 126.459 79.6248L124.546 62.9689L122.558 46.3283C121.862 40.7817 121.194 35.2297 120.467 29.693C120.973 35.2555 121.534 40.8127 122.073 46.3802L123.781 63.052L125.57 79.7184C126.125 84.8189 126.659 89.9293 127.241 95.0298C120.408 88.1013 113.612 81.1416 106.735 74.2497L99.6321 67.1185C102.645 61.7327 105.603 56.3208 108.583 50.9197L117.594 34.4036L126.519 17.841C129.337 12.6005 132.167 7.36012 134.958 2.10406L140.994 15.3066C143.128 19.9912 145.284 24.6759 147.455 29.3503L153.966 43.3734L160.346 56.9288L154.354 43.2225L148.086 29.0957C146.001 24.3851 143.898 19.6796 141.775 14.9846L137.777 6.11904C139.598 6.54481 141.425 6.93435 143.247 7.33434C145.079 7.74968 146.911 8.1236 148.754 8.50795L154.267 9.65579L159.543 10.6945C160.594 13.6186 161.618 16.5529 162.685 19.4719L166 28.4467C167.099 31.4432 168.268 34.4141 169.4 37.3953C169.966 38.8858 170.559 40.3713 171.14 41.8566C171.674 43.2069 172.208 44.5523 172.757 45.8973L160.368 56.9963L160.271 57.0791L160.239 57.1104L160.211 57.1469L144.098 79.8119L143.915 80.0665L144.157 80.2693L144.249 80.3469C143.581 81.8738 142.961 83.4112 142.32 84.9434C141.652 86.5949 140.988 88.2517 140.342 89.9139C139.064 93.1961 137.825 96.4991 136.618 99.8129C135.524 100.919 134.414 102.015 133.33 103.132C132.21 104.274 131.099 105.407 130 106.559C128.895 107.707 127.801 108.865 126.718 110.024C125.64 111.197 124.546 112.356 123.495 113.545C124.697 112.491 125.861 111.395 127.047 110.325C128.216 109.239 129.38 108.149 130.534 107.048C131.692 105.952 132.835 104.84 133.977 103.734C135.12 102.633 136.246 101.506 137.383 100.39L137.453 100.322L137.491 100.223C138.725 96.8837 139.927 93.5335 141.085 90.1682C141.662 88.4906 142.239 86.8026 142.788 85.1097C143.29 83.5306 143.802 81.9674 144.281 80.3834L171.146 103.308L171.178 103.454L171.286 103.433L171.453 103.573L171.777 103.854L171.938 103.464L172.025 103.272L172.132 103.251L172.1 103.106L192.11 57.4585L206.623 24.1305L180.238 107.469L161.025 109.447L120.768 120.323L121.07 121.003L116.236 127.848C106.342 120.515 92.4213 110.507 81.9128 102.888ZM6.84255 98.4104L79.4929 111.447L79.6709 110.522L69.7979 108.751L70.1374 108.481L54.8324 90.4332L79.6654 109.006C80.6084 118.1 81.6431 128.378 82.565 136.382L82.5431 136.371V136.221L82.2362 136.215L6.84255 98.4104ZM36.1872 114.438L35.905 114.044L80.0694 136.189L4.89071 135.203L36.1872 114.438ZM4.68707 136.142L81.9989 137.155L82.6993 137.509L82.7209 137.685L82.9044 137.639L111.262 160.179L107.349 160.501L107.333 160.444L107.037 160.527L40.4161 166.017L4.68707 136.142ZM24.6535 168.26L40.088 166.988L40.2538 167.128L40.4056 166.962L102.38 161.856L2.424 190.344L24.6535 168.26ZM2.51416 191.019L115.541 175.246L4.51837 190.266L107.215 161.457L112.534 161.02L112.491 160.553L112.803 160.19L84.063 137.348C93.7257 134.912 106.552 131.681 116.193 129.168L130.803 142.993L130.83 142.967L141.759 167.637L160.093 147.693L160.481 147.959L160.486 147.756L209.867 167.118L180.464 168.801L211.667 167.938L216.749 184.667L187.265 199.355L160.664 208.906L158.137 189.809L159.753 209.238L103.954 233.628L141.188 189.591L105.296 230.678L141.463 168.312L114.506 180.684L114.425 180.528L51.313 210.329L2.51416 191.019ZM104.294 245.35L88.2236 259.789L72.5195 274.009C73.9044 266.857 75.257 259.7 76.6096 252.544L80.84 230.19L108.002 206.33L101.594 235.685L112.448 230.943L104.17 245.288L104.294 245.35ZM114.355 181.79L139.118 170.426L103.388 232.039L114.355 181.79ZM105.038 245.719L112.485 230.927L154.693 212.48C153.944 214.562 153.227 216.65 152.5 218.738L150.198 225.542C149.433 227.811 148.668 230.076 147.941 232.361L145.801 238.967C142.912 239.902 140.024 240.873 137.146 241.85L128.286 244.846L119.459 247.932C116.608 248.955 113.757 249.962 110.928 251.017C109.623 249.864 104.854 245.709 104.622 245.511L105.038 245.719ZM25.3546 218.847L34.212 204.58L51.1457 211.28L51.3508 211.363L104.639 186.199L17.0497 232.143C19.8248 227.718 22.6057 223.293 25.3546 218.847ZM32.0886 232.039L17.7334 232.849L106.368 185.379L113.294 182.107L108.012 206.309L80.1826 229.504L48.1874 231.182L32.0886 232.039ZM75.1223 286.988L63.4493 275.167L64.2848 257.368L65.0609 239.393L65.1039 238.401L64.3171 239.035L50.1707 250.471L36.5362 261.586C36.2773 256.828 36.0185 252.071 35.7218 247.313L34.8433 232.662L48.2249 232.013L79.8164 230.444L75.7474 252.388C74.357 259.893 72.9669 267.403 71.6139 274.913L71.4254 275.951L72.212 275.224L73.7048 273.837L79.9833 286.458C81.8316 290.198 83.7017 293.927 85.5823 297.651L75.1223 286.988ZM128.642 253.535L127.736 254.502L125.936 256.433L122.337 260.292L115.131 268.005L86.6443 298.502C84.5369 294.436 82.4192 290.374 80.2745 286.323L73.7048 273.843L88.5252 260.1L104.294 245.355L104.612 245.516L110.793 251.069C110.745 251.084 110.702 251.105 110.653 251.121C110.702 251.105 110.75 251.089 110.804 251.074L111.197 251.427C111.208 251.458 125.694 252.798 125.694 252.798L129.127 253.12C128.971 253.245 128.809 253.38 128.642 253.535ZM129.553 252.777C129.483 252.772 129.418 252.767 129.353 252.762C126.896 252.575 114.026 251.526 111.251 251.312C111.273 251.323 111.154 251.219 110.939 251.027C113.843 250.175 116.727 249.282 119.62 248.399L128.545 245.584L137.437 242.681C140.019 241.839 142.595 240.993 145.165 240.125L129.677 252.668C129.634 252.71 129.596 252.741 129.553 252.777ZM206.628 259.97C206.876 262.183 207.135 264.396 207.415 266.608C207.927 270.711 208.412 274.809 208.962 278.902L197.629 270.669L186.052 262.401L205.89 253.842L205.938 253.863L206.628 259.97ZM205.895 252.814L185.675 261.539C185.891 259.758 186.085 257.971 186.29 256.184L186.985 250.051C187.227 248.009 187.427 245.958 187.642 243.912L188.267 237.773H188.246L187.324 243.88C187.028 245.917 186.715 247.947 186.435 249.988L185.584 256.101C185.314 258.059 185.029 260.017 184.775 261.985L173.113 284.105C176.734 267.647 180.265 251.494 183.153 237.986C183.116 237.923 168.646 211.732 166.592 208.002C168.576 211.732 182.393 237.596 182.657 237.97C175.969 267.605 166.533 309.508 159.807 340.052C152.683 318.176 138.693 275.209 131.967 254.912C131.779 254.403 131.644 253.618 131.18 253.25C130.857 252.928 130.366 252.834 129.892 252.793L145.197 240.11C145.569 239.985 145.941 239.86 146.313 239.736L146.539 239.663L146.604 239.45L148.744 232.6C149.466 230.32 150.155 228.035 150.835 225.739L152.882 218.868C153.491 216.733 154.122 214.604 154.714 212.464L160.179 210.075L166.474 207.816C166.506 207.868 166.539 207.935 166.576 208.002C166.539 207.93 166.506 207.868 166.474 207.81L187.394 200.3L211.883 214.9L199.779 237.17L212.691 240.193L219.762 247.251L227.35 254.767L240.865 268.052L205.895 252.814ZM274.418 244.95L281.052 253.271L293.862 269.205L268.814 269.059L243.08 269.033L243.091 269.013L243.005 268.976L227.759 254.393L220.004 247.043L212.756 240.209L262.428 251.837L262.869 251.941L267.93 236.729L274.418 244.95ZM273.4 217.149L262.266 250.606L258.515 247.89L214.534 205.504L218.075 185.857L218.096 185.748L217.913 185.14L227.759 180.237L227.754 180.248L244.341 187.337L273.4 217.149ZM311.506 144.245L289.826 156.897L289.406 157.141L289.696 157.525L298.12 168.364L252.98 167.767L298.664 169.304L302.625 198.155L262.67 204.19L299.472 199.495L285.434 204.393L268.199 210.433L244.999 186.636L244.929 186.568L228.869 179.702L252.161 168.099L252.587 150.664L330.444 133.286L311.506 144.245Z" fill="white"/>
</svg>
